<svg width="16" height="16" viewBox="0 0 16 16" fill="none" xmlns="http://www.w3.org/2000/svg">
    <path d="M11.7526 1H4.24742C2.45392 1 1 2.45392 1 4.24742V11.7526C1 13.5461 2.45392 15 4.24742 15H11.7526C13.5461 15 15 13.5461 15 11.7526V4.24742C15 2.45392 13.5461 1 11.7526 1Z" fill="url(#paint0_linear)" stroke="#D9D9D9" stroke-width="0.0714286"/>
    <path fill-rule="evenodd" clip-rule="evenodd" d="M3.30081 10.8536H2.9715V6.45301H3.30081V10.8536ZM3.13146 5.37429C2.99259 5.37429 2.87775 5.26413 2.87775 5.12525C2.87775 4.98228 2.99201 4.87154 3.13146 4.87154C3.27444 4.87154 3.38811 4.9817 3.38811 5.12525C3.38811 5.26413 3.27444 5.37429 3.13146 5.37429Z" fill="black"/>
    <path fill-rule="evenodd" clip-rule="evenodd" d="M6.49936 10.9392C4.88914 10.9392 3.8719 9.76665 3.8719 7.90277C3.8719 6.0482 4.89383 4.87105 6.49936 4.87105C8.10488 4.87105 9.12623 6.04827 9.12623 7.90277C9.12623 9.76672 8.109 10.9392 6.49936 10.9392V10.9392ZM6.49936 5.17392C5.09777 5.17392 4.203 6.23215 4.203 7.9027C4.203 9.57447 5.10188 10.6368 6.49936 10.6368C7.90094 10.6368 8.79572 9.57447 8.79572 7.9027C8.79572 6.23157 7.90094 5.17392 6.49936 5.17392Z" fill="black"/>
    <path fill-rule="evenodd" clip-rule="evenodd" d="M11.4711 10.9397C10.2623 10.9397 9.39568 10.257 9.34647 9.2808H9.66933C9.71855 10.0813 10.4704 10.6414 11.4958 10.6414C12.4965 10.6414 13.195 10.073 13.195 9.30541C13.195 8.68781 12.7784 8.3327 11.7899 8.08366L11.0914 7.91197C10.001 7.63364 9.50583 7.19242 9.50583 6.45352C9.50583 5.53414 10.3642 4.87202 11.4389 4.87202C12.5499 4.87202 13.3796 5.52595 13.4165 6.39203H13.0937C13.0485 5.68537 12.3583 5.17028 11.4307 5.17028C10.5436 5.17028 9.83685 5.70175 9.83685 6.44529C9.83685 7.03418 10.2699 7.3729 11.2174 7.6096L11.8754 7.77718C13.0151 8.05903 13.526 8.49674 13.526 9.28074C13.526 10.2569 12.7051 10.9396 11.4711 10.9396L11.4711 10.9397Z" fill="black"/>
    <defs>
        <linearGradient id="paint0_linear" x1="8" y1="8" x2="8" y2="15" gradientUnits="userSpaceOnUse">
            <stop offset="1" stop-color="white"/>
            <stop offset="1" stop-color="#E9E5E5"/>
        </linearGradient>
    </defs>
</svg>