<svg xmlns="http://www.w3.org/2000/svg" width="16" height="16" viewBox="0 0 16 16">
  <path fill="#9AA7B0" fill-opacity=".8" fill-rule="evenodd" d="M8,1 C4.136,1 1,4.136 1,8 C1,11.864 4.136,15 8,15 C11.864,15 15,11.864 15,8 C15,4.136 11.864,1 8,1 Z M7.3,13.551 C4.535,13.208 2.4,10.856 2.4,8 C2.4,7.566 2.456,7.153 2.547,6.747 L5.9,10.1 L5.9,10.8 C5.9,11.57 6.53,12.2 7.3,12.2 L7.3,13.551 Z M12.13,11.773 C11.948,11.206 11.43,10.8 10.8,10.8 L10.1,10.8 L10.1,8.7 C10.1,8.315 9.785,8 9.4,8 L5.2,8 L5.2,6.6 L6.6,6.6 C6.985,6.6 7.3,6.285 7.3,5.9 L7.3,4.5 L8.7,4.5 C9.47,4.5 10.1,3.87 10.1,3.1 L10.1,2.813 C12.151,3.646 13.6,5.655 13.6,8 C13.6,9.456 13.04,10.779 12.13,11.773 Z"/>
</svg>