<svg xmlns="http://www.w3.org/2000/svg" width="40" height="40" viewBox="0 0 40 40">
  <path fill="#02303A" d="M35.5404396,1.74549451 C33.2695175,-0.525652598 29.6072255,-0.5884453 27.2597802,1.60351648 C27.1453924,1.71229925 27.0806371,1.86324369 27.0806371,2.0210989 C27.0806371,2.17895411 27.1453924,2.32989855 27.2597802,2.43868132 L27.978022,3.17362637 C28.178689,3.3732072 28.4956794,3.39457734 28.7213187,3.22373626 C30.1524829,2.08056143 32.2305999,2.26971432 33.4318484,3.65249475 C34.6330969,5.03527518 34.5298441,7.11942685 33.1978022,8.3767033 C28.4665934,13.1037363 22.1527473,-0.15032967 7.82131868,6.68131868 C7.33229959,6.91621594 6.9638477,7.34498049 6.80519549,7.8637732 C6.64654329,8.3825659 6.71215979,8.94407308 6.98615385,9.41230769 L9.44571429,13.6591209 C9.97577479,14.5811012 11.1499061,14.9035214 12.0764835,14.3815385 L12.1349451,14.3481319 L12.089011,14.3815385 L13.1663736,13.7802198 C14.3811657,13.0259844 15.5294937,12.1696279 16.5989011,11.2204396 C16.8175758,11.0210966 17.1487764,11.0104698 17.3797802,11.1953846 L17.3797802,11.1953846 C17.5020651,11.2979376 17.5747404,11.4478268 17.5795261,11.6073505 C17.5843118,11.7668742 17.5207525,11.9208504 17.4048352,12.0305495 C16.2792667,13.0444272 15.066349,13.9569102 13.7802198,14.7573626 L13.7426374,14.7573626 L12.6527473,15.367033 C12.1924448,15.6255122 11.6731843,15.7607213 11.1452747,15.7595604 C10.0324167,15.7635587 9.00218258,15.1728063 8.44351648,14.2103297 L6.11758242,10.1973626 C1.67032967,13.3626374 -1.06065934,19.4426374 0.417582418,27.1428571 C0.467637447,27.4105353 0.700652436,27.6050065 0.972967033,27.6063736 L3.59538462,27.6063736 C3.89525141,27.6141516 4.1494573,27.387378 4.17582418,27.0885714 C4.43067667,25.1591919 6.07561971,23.7172417 8.02175824,23.7172417 C9.96789677,23.7172417 11.6128398,25.1591919 11.8676923,27.0885714 C11.9015201,27.3719821 12.1418304,27.585392 12.4272527,27.5854945 L14.9912088,27.5854945 C15.2759236,27.5835397 15.5151858,27.3710606 15.5507692,27.0885714 C15.8056217,25.1591919 17.4505648,23.7172417 19.3967033,23.7172417 C21.3428418,23.7172417 22.9877849,25.1591919 23.2426374,27.0885714 C23.2782208,27.3710606 23.517483,27.5835397 23.8021978,27.5854945 L26.3494505,27.5854945 C26.659867,27.5855281 26.9127977,27.3363169 26.9173626,27.0259341 C26.9758242,23.4347253 27.9446154,19.309011 30.7048352,17.241978 C40.2674725,10.0887912 37.7536264,3.95868132 35.5404396,1.74549451 Z M25.7898901,12.5483516 L23.9650549,11.6338462 L23.9650549,11.6338462 C23.9645769,11.094748 24.3404765,10.6284497 24.8673955,10.514505 C25.3943145,10.4005603 25.9292903,10.6698846 26.1515958,11.1610132 C26.3739012,11.6521418 26.2232208,12.2318228 25.7898901,12.5525275 L25.7898901,12.5483516 Z" transform="translate(2 6)"/>
</svg>
