<svg xmlns="http://www.w3.org/2000/svg" width="40" height="40" viewBox="0 0 40 40">
  <g fill="none" transform="translate(2 4.47)">
    <path fill="#02303A" d="M36.2064,3.2832 C34.8924444,0.9196 32.5432,0.213644444 30.8838667,0.179866667 C28.8479111,0.139333333 27.1750667,1.26666667 27.4917333,2.00724444 C27.5592889,2.166 27.9409778,2.99524444 28.1757333,3.33808889 C28.5152,3.83293333 29.1215111,3.45293333 29.3351556,3.33977778 C29.9701778,3.002 30.6482667,2.89222222 31.4184,2.98257778 C32.1539111,3.06786667 33.1326222,3.52133333 33.7879111,4.78124444 C35.3315556,7.74777778 30.5663556,13.8522667 24.6020444,9.62497778 C18.6385778,5.39768889 12.8389333,6.79862222 10.2127111,7.65066667 C7.58648889,8.50186667 6.37893333,9.35897778 7.4176,11.3400444 C8.82782222,14.0321333 8.36,13.2062667 9.72715556,15.4356 C11.8990667,18.9738222 16.6524444,13.8058222 16.6524444,13.8058222 C13.1116889,19.0261778 10.0759111,17.7645778 8.91142222,15.9397333 C7.86177778,14.2956 7.04688889,12.3989778 7.04688889,12.3989778 C-1.9228,15.5622667 0.504133333,29.5268444 0.504133333,29.5268444 L4.95857778,29.5268444 C6.09435556,24.3850222 10.1544444,24.5750222 10.8502667,29.5268444 L14.2491556,29.5268444 C17.2553778,19.4864 24.8731111,29.5268444 24.8731111,29.5268444 L29.3039111,29.5268444 C28.0625778,22.6784 31.7958667,20.5259111 34.1484889,16.5114222 C36.5011111,12.4960889 38.7304444,7.5848 36.2064,3.2832 Z M23.2745778,13.4114667 C23.2745778,13.4114667 25.3198222,14.0726667 28.0870667,14.9753778 C27.9274667,15.6982222 26.5510222,17.0848 24.7785333,16.5063556 C22.4360444,15.7421333 23.2745778,13.4114667 23.2745778,13.4114667 Z"/>
    <path fill="#00303A" d="M26.8567111,14.7490667 C26.9268,15.3942222 26.4336444,15.9743556 25.7538667,16.0452889 C25.0749333,16.1153778 24.4677778,15.6500889 24.3976889,15.0049333 C24.3284444,14.3597778 24.8216,13.7788 25.5005333,13.7087111 C26.1794667,13.6377778 26.7866222,14.1039111 26.8567111,14.7490667"/>
  </g>
</svg>
