<svg xmlns="http://www.w3.org/2000/svg" width="16" height="16" viewBox="0 0 16 16">
  <defs>
    <linearGradient id="annotationkotlin-a" x1="-16.836%" x2="76.219%" y1="91.94%" y2="-1.116%">
      <stop offset="10.75%" stop-color="#C757BC"/>
      <stop offset="21.38%" stop-color="#D0609A"/>
      <stop offset="42.54%" stop-color="#E1725C"/>
      <stop offset="60.48%" stop-color="#EE7E2F"/>
      <stop offset="74.3%" stop-color="#F58613"/>
      <stop offset="82.32%" stop-color="#F88909"/>
    </linearGradient>
  </defs>
  <g fill="none" fill-rule="evenodd">
    <path fill="#62B543" fill-opacity=".6" d="M8,15 C4.134,15 1,11.866 1,8 C1,4.134 4.134,1 8,1 C11.866,1 15,4.134 15,8 L8,8 L8,15 Z"/>
    <path fill="#231F20" fill-opacity=".7" d="M8,9.32546146 L8,9.99479038 C7.96295228,9.99826346 7.92598561,10 7.8891,10 C7.0796519,10 6.0001,9.9211 6.0001,8.0001 C6.0001,6.32043457 7.45593262,6.0001 8.0001,6.0001 C8.1531,6.0001 9.7451,6.0551 9.8241,6.0791 L9.75123514,8 L8.76698282,8 C8.76949411,7.96484636 8.77153802,7.92919908 8.7731,7.8931 L8.8421,6.6991 L8.8001,6.6891 C8.6851,6.6621 8.5981,6.6481 8.5001,6.6371 C8.4021,6.6271 8.3041,6.6221 8.2021,6.6221 C7.9781,6.6221 7.7861,6.6681 7.6281,6.7611 C7.4731,6.8511 7.3451,6.9741 7.2461,7.1241 C7.1511,7.2721 7.0811,7.4411 7.0391,7.6261 C6.9971,7.8091 6.9761,7.9961 6.9761,8.1841 C6.9761,8.5861 7.0491,8.8721 7.1971,9.0581 C7.3491,9.2481 7.5541,9.3451 7.8051,9.3451 C7.87358352,9.3451 7.93862169,9.33855382 8,9.32546146 Z M11.9819335,8 L11.0207418,8 C11.0512431,7.7891763 11.0601,7.61595609 11.0601,7.5471 C11.0601,4.90740967 8.7081,4.7451 8.3161,4.7451 C7.7711,4.7451 4.94354248,4.85089111 4.94354248,8.0006 C4.94354248,8.58402311 4.94354248,11.2461 7.8891,11.2461 C7.91057454,11.2461 7.94863428,11.2437821 8,11.2393794 L8,11.999376 C7.96639091,11.999855 7.93242407,12.0001 7.8981,12.0001 C7.15576172,12.0001 4.0021,12.0001 4.0021,8.0006 C4.0021,4.0011 7.66741943,4.0011 8.3161,4.0011 C8.65105644,4.0011 12.0001,4.086429 12.0001,7.5571 C12.0001,7.7146793 11.9938016,7.86209409 11.9819335,8 Z"/>
    <g transform="translate(9 9)">
      <polygon fill="#0EAEFF" fill-rule="nonzero" points="0 7 3.512 3.488 7 7"/>
      <polygon fill="#0EAEFF" fill-rule="nonzero" points="0 0 3.512 0 0 3.792"/>
      <polygon fill="url(#annotationkotlin-a)" fill-rule="nonzero" points="3.512 0 0 3.698 0 7 3.512 3.488 7 0"/>
    </g>
  </g>
</svg>
