<svg xmlns="http://www.w3.org/2000/svg" width="12" height="12" viewBox="0 0 12 12">
  <g fill="none" fill-rule="evenodd">
    <path fill="#AFB1B3" d="M5,6.65682683 L5,7.49348816 C4.95369035,7.49782933 4.90748201,7.5 4.861375,7.5 C3.84956488,7.5 2.500125,7.401375 2.500125,5.000125 C2.500125,2.90054321 4.31991577,2.500125 5.000125,2.500125 C5.191375,2.500125 7.181375,2.568875 7.280125,2.598875 L7.18904392,5 L5.95872887,5 C5.96186764,4.95605795 5.96442253,4.91149886 5.966375,4.866375 L6.052625,3.373875 L6.000125,3.361375 C5.856375,3.327625 5.747625,3.310125 5.625125,3.296375 C5.502625,3.283875 5.380125,3.277625 5.252625,3.277625 C4.972625,3.277625 4.732625,3.335125 4.535125,3.451375 C4.341375,3.563875 4.181375,3.717625 4.057625,3.905125 C3.938875,4.090125 3.851375,4.301375 3.798875,4.532625 C3.746375,4.761375 3.720125,4.995125 3.720125,5.230125 C3.720125,5.732625 3.811375,6.090125 3.996375,6.322625 C4.186375,6.560125 4.442625,6.681375 4.756375,6.681375 C4.84197941,6.681375 4.92327711,6.67319228 5,6.65682683 Z M9.97741689,5 L8.77592721,5 C8.81405384,4.73647037 8.825125,4.51994511 8.825125,4.433875 C8.825125,1.13426208 5.885125,0.931375 5.395125,0.931375 C4.713875,0.931375 1.1794281,1.06361389 1.1794281,5.00075 C1.1794281,5.73002889 1.1794281,9.057625 4.861375,9.057625 C4.88821817,9.057625 4.93579286,9.05472758 5,9.04922421 L5,9.99922003 C4.95798864,9.99981871 4.91553009,10.000125 4.872625,10.000125 C3.94470215,10.000125 0.002625,10.000125 0.002625,5.00075 C0.002625,0.001375 4.58427429,0.001375 5.395125,0.001375 C5.81382056,0.001375 10.000125,0.108036255 10.000125,4.446375 C10.000125,4.64334913 9.99225205,4.82761761 9.97741689,5 Z" transform="translate(1 1)"/>
    <path fill="#AFB1B3" d="M5,6.65682683 L5,7.49348816 C4.95369035,7.49782933 4.90748201,7.5 4.861375,7.5 C3.84956488,7.5 2.500125,7.401375 2.500125,5.000125 C2.500125,2.90054321 4.31991577,2.500125 5.000125,2.500125 C5.191375,2.500125 7.181375,2.568875 7.280125,2.598875 L7.18904392,5 L5.95872887,5 C5.96186764,4.95605795 5.96442253,4.91149886 5.966375,4.866375 L6.052625,3.373875 L6.000125,3.361375 C5.856375,3.327625 5.747625,3.310125 5.625125,3.296375 C5.502625,3.283875 5.380125,3.277625 5.252625,3.277625 C4.972625,3.277625 4.732625,3.335125 4.535125,3.451375 C4.341375,3.563875 4.181375,3.717625 4.057625,3.905125 C3.938875,4.090125 3.851375,4.301375 3.798875,4.532625 C3.746375,4.761375 3.720125,4.995125 3.720125,5.230125 C3.720125,5.732625 3.811375,6.090125 3.996375,6.322625 C4.186375,6.560125 4.442625,6.681375 4.756375,6.681375 C4.84197941,6.681375 4.92327711,6.67319228 5,6.65682683 Z M9.97741689,5 L8.77592721,5 C8.81405384,4.73647037 8.825125,4.51994511 8.825125,4.433875 C8.825125,1.13426208 5.885125,0.931375 5.395125,0.931375 C4.713875,0.931375 1.1794281,1.06361389 1.1794281,5.00075 C1.1794281,5.73002889 1.1794281,9.057625 4.861375,9.057625 C4.88821817,9.057625 4.93579286,9.05472758 5,9.04922421 L5,9.99922003 C4.95798864,9.99981871 4.91553009,10.000125 4.872625,10.000125 C3.94470215,10.000125 0.002625,10.000125 0.002625,5.00075 C0.002625,0.001375 4.58427429,0.001375 5.395125,0.001375 C5.81382056,0.001375 10.000125,0.108036255 10.000125,4.446375 C10.000125,4.64334913 9.99225205,4.82761761 9.97741689,5 Z" transform="translate(1 1)"/>
  </g>
</svg>
