<svg xmlns="http://www.w3.org/2000/svg" width="16" height="16" viewBox="0 0 16 16">
  <defs>
    <linearGradient id="kotlin_gradle_script-a" x1="-16.836%" x2="76.219%" y1="91.94%" y2="-1.116%">
      <stop offset="10.75%" stop-color="#C757BC"/>
      <stop offset="21.38%" stop-color="#D0609A"/>
      <stop offset="42.54%" stop-color="#E1725C"/>
      <stop offset="60.48%" stop-color="#EE7E2F"/>
      <stop offset="74.3%" stop-color="#F58613"/>
      <stop offset="82.32%" stop-color="#F88909"/>
    </linearGradient>
  </defs>
  <g fill="none" fill-rule="evenodd">
    <path fill="#9AA7B0" fill-opacity=".8" d="M14.9593166,8 L8,8 L8,12.2027086 C7.46565017,12.3188603 6.96760481,12.8206291 6.62193929,14 L5.2613821,14 C4.98281046,11.9750823 3.35743823,11.89756 2.90282898,14 L1.11976134,14 C1.11976134,14 0.148334564,8.28999559 3.73881369,6.99656509 C3.73881369,6.99656509 4.06519636,7.77188831 4.48524548,8.44439933 C4.95135228,9.19055476 6.16655453,9.70626797 7.58416127,7.57182773 C7.58416127,7.57182773 5.68119521,9.68515927 4.81183043,8.23786454 C4.26449884,7.32661614 4.45159568,7.66438904 3.88713574,6.56356698 C3.47177332,5.75351221 3.95494106,5.4032292 5.00607535,5.05493565 C6.05724334,4.70657467 8.37897727,4.13387474 10.7664935,5.86225912 C13.153976,7.59064349 15.0613253,5.09475891 14.4434573,3.88205401 C14.1809013,3.36677919 13.7895455,3.18131937 13.4949582,3.1462506 C13.1867828,3.10956328 12.9150895,3.15424223 12.6608617,3.29225806 C12.5757257,3.33848814 12.3326583,3.49413951 12.196879,3.29154994 C12.1030777,3.15154464 11.9502713,2.81235548 11.9230952,2.74737711 C11.7964871,2.44470668 12.4659087,1.98365356 13.2809887,2.00044611 C13.9453191,2.01413641 14.8856586,2.30291422 15.411782,3.26915988 C16.2865871,4.79241848 15.7346628,6.50274839 14.9593166,8 Z"/>
    <g transform="translate(9 9)">
      <polygon fill="#0EAEFF" fill-rule="nonzero" points="0 7 3.512 3.488 7 7"/>
      <polygon fill="#0EAEFF" fill-rule="nonzero" points="0 0 3.512 0 0 3.792"/>
      <polygon fill="url(#kotlin_gradle_script-a)" fill-rule="nonzero" points="3.512 0 0 3.698 0 7 3.512 3.488 7 0"/>
    </g>
  </g>
</svg>
