<svg xmlns="http://www.w3.org/2000/svg" width="12" height="12" viewBox="0 0 12 12">
  <g fill="none" fill-rule="evenodd">
    <path fill="#AFB1B3" d="M6.48202593,7 C6.18604074,6.33333333 5.81605926,5.66666667 5.52007407,5 L8,5 L8,2 L12,6 L8,10 L8,7 L6.48202593,7 Z M3.48148148,7 L3.6739404e-16,7 L4.8985872e-16,5 L2.51851852,5 C2.81481481,5.66666667 3.18518519,6.33333333 3.48148148,7 Z"/>
    <path fill="#499C54" d="M3.9,0 L5.2,0 C4.53473333,0.666666667 4.2021,1.66666667 4.2021,3 C4.2021,5 6.2,7 6.2,9 C6.2,10.3333333 5.86666667,11.3333333 5.2,12 L3.9,12 C4.56666667,11.3333333 4.9,10.3333333 4.9,9 C4.9,7 2.9,5 2.9,3 C2.9,1.66666667 3.23333333,0.666666667 3.9,0 Z"/>
  </g>
</svg>
