<?xml version="1.0" encoding="utf-8"?>
<!-- Generator: Adobe Illustrator 24.1.2, SVG Export Plug-In . SVG Version: 6.00 Build 0)  -->
<svg version="1.1" id="Layer_1" xmlns="http://www.w3.org/2000/svg" xmlns:xlink="http://www.w3.org/1999/xlink" x="0px" y="0px"
	 viewBox="0 0 128 128" style="enable-background:new 0 0 128 128;" xml:space="preserve">
<style type="text/css">
	.st0{fill:#E6E6E6;}
	.st1{fill:#3DDB84;}
	.st2{fill:#4D4D4D;}
</style>
<g>
	<g>
		<polygon class="st0" points="128,128 0,128 0,0 128,0 63.7,64 		"/>
	</g>
	<g>
		<path class="st1" d="M73.4,92.9H18V65.1c0-15.4,12.4-27.8,27.7-27.8h0c15.3,0,27.7,12.5,27.7,27.8V92.9z"/>
		<path class="st2" d="M77.2,93.3L77.2,93.3c-15.3,0-27.7-12.5-27.7-27.8v0c0-15.4,12.4-27.8,27.7-27.8h0
			c15.3,0,27.7,12.5,27.7,27.8v0C104.8,80.8,92.4,93.3,77.2,93.3z"/>
		<path class="st2" d="M93.8,16.2c-9.9,0-18,7.5-18,16.7l0,0c0,0.2,0,0.4,0,0.6c0.2,0,0.4,0,0.6,0h0c9.9,0,18-7.5,18-16.7v0
			c0-0.2,0-0.4,0-0.6C94.2,16.2,94,16.2,93.8,16.2L93.8,16.2z"/>
	</g>
</g>
</svg>
